# xmcd
#
# Track frame offsets: 
#        150
#        16606
#        31521
#        47671
#        59947
#        80835
#        96135
#        109056
#        120383
#        134509
#        150295
#        164513
#        180650
#        196306
#        212584
#        226449
#        238896
#        254183
#        270299
#        283324
#        299167
#        313882
#        327731
#        342329
#
# Disc length: 4746 seconds
#
# Revision: 0
# Processed by: cddbd v1.5.2PL0 Copyright (c) Steve Scherf et al.
# Submitted via: ExactAudioCopy v1.1
#
DISCID=71128818
DTITLE=Various Artist - MNM Big Hits 2018 Best Of - CD 2
DYEAR=2018
DGENRE=Top 40
TTITLE0=Bløf Feat. Geike Arnaert - Zoutelande
TTITLE1=George Ezra - Shotgun
TTITLE2=Maroon 5 - Girls Like You
TTITLE3=Regi Feat. Jake Reese - Ellie
TTITLE4=Justin Timberlake Feat. Chris Stapleton - Say Something
TTITLE5=Alvaro Soler - La Cintura
TTITLE6=Luis Fonsi and Demi Lovato - Echame La Culpa
TTITLE7=Lost Frequencies and Zonderling - Crazy
TTITLE8=Imagine Dragons - Natural
TTITLE9=Shawn Mendes - In My Blood
TTITLE10=Bruno Mars - Finesse
TTITLE11=Marshmello and Bastille - Happier
TTITLE12=Jax Jones Feat. Ina Wroldsen - Breathe
TTITLE13=Tiësto and Dzeko Feat. Preme and Post Malone - Jackie Chan
TTITLE14=Armin Van Buuren - Blah Blah Blah
TTITLE15=El Profesor - Bella Ciao (Hugel Remix)
TTITLE16=5 Seconds Of Summer - Youngblood
TTITLE17=MC Fioti, Future, J. Balvin, Stefflon Don and Juan Magan - Bum 
TTITLE17=Bum Tam Tam
TTITLE18=Nicky Jam and J. Balvin - X
TTITLE19=The Weeknd and Kendrick Lamar - Pray For Me
TTITLE20=Hooverphonic - Romantic
TTITLE21=Niels Destadsbader - Verover Mij
TTITLE22=Frenna and Lil Kleine - Verleden Tijd
TTITLE23=Tom Walker - Leave A Light On
EXTD=
EXTT0=
EXTT1=
EXTT2=
EXTT3=
EXTT4=
EXTT5=
EXTT6=
EXTT7=
EXTT8=
EXTT9=
EXTT10=
EXTT11=
EXTT12=
EXTT13=
EXTT14=
EXTT15=
EXTT16=
EXTT17=
EXTT18=
EXTT19=
EXTT20=
EXTT21=
EXTT22=
EXTT23=
PLAYORDER=
